<?xml version="1.0" encoding="UTF-8" standalone="no"?>
<!-- Created with Inkscape (http://www.inkscape.org/) -->

<svg
   xmlns:dc="http://purl.org/dc/elements/1.1/"
   xmlns:cc="http://creativecommons.org/ns#"
   xmlns:rdf="http://www.w3.org/1999/02/22-rdf-syntax-ns#"
   xmlns:svg="http://www.w3.org/2000/svg"
   xmlns="http://www.w3.org/2000/svg"
   xmlns:xlink="http://www.w3.org/1999/xlink"
   xmlns:sodipodi="http://sodipodi.sourceforge.net/DTD/sodipodi-0.dtd"
   xmlns:inkscape="http://www.inkscape.org/namespaces/inkscape"
   version="1.0"
   width="992.94556"
   height="475"
   id="svg2"
   inkscape:version="0.91 r13725"
   sodipodi:docname="onion.svg">
  <metadata
     id="metadata71">
    <rdf:RDF>
      <cc:Work
         rdf:about="">
        <dc:format>image/svg+xml</dc:format>
        <dc:type
           rdf:resource="http://purl.org/dc/dcmitype/StillImage" />
        <dc:title></dc:title>
      </cc:Work>
    </rdf:RDF>
  </metadata>
  <sodipodi:namedview
     pagecolor="#ffffff"
     bordercolor="#666666"
     borderopacity="1"
     objecttolerance="10"
     gridtolerance="10"
     guidetolerance="10"
     inkscape:pageopacity="0"
     inkscape:pageshadow="2"
     inkscape:window-width="1920"
     inkscape:window-height="1027"
     id="namedview69"
     showgrid="false"
     inkscape:zoom="0.96651392"
     inkscape:cx="326.39257"
     inkscape:cy="194.49848"
     inkscape:window-x="0"
     inkscape:window-y="31"
     inkscape:window-maximized="1"
     inkscape:current-layer="svg2"
     inkscape:snap-page="true"
     fit-margin-top="0"
     fit-margin-left="0"
     fit-margin-right="0"
     fit-margin-bottom="0" />
  <defs
     id="defs4">
    <marker
       refX="0"
       refY="0"
       orient="auto"
       style="overflow:visible"
       id="Arrow2Lend">
      <path
         d="M 8.7185878,4.0337352 -2.2072895,0.01601326 8.7185884,-4.0017078 c -1.7454984,2.3720609 -1.7354408,5.6174519 -6e-7,8.035443 z"
         transform="matrix(-1.1,0,0,-1.1,-1.1,0)"
         style="font-size:12px;fill-rule:evenodd;stroke-width:0.625;stroke-linejoin:round"
         id="path11195"
         inkscape:connector-curvature="0" />
    </marker>
    <linearGradient
       id="linearGradient8094">
      <stop
         style="stop-color:#000000;stop-opacity:1"
         offset="0"
         id="stop8096" />
      <stop
         style="stop-color:#ffffff;stop-opacity:1"
         offset="1"
         id="stop8098" />
    </linearGradient>
    <linearGradient
       id="linearGradient7114">
      <stop
         style="stop-color:#800000;stop-opacity:1"
         offset="0"
         id="stop7116" />
      <stop
         style="stop-color:#ff8181;stop-opacity:1"
         offset="1"
         id="stop7118" />
    </linearGradient>
    <linearGradient
       id="linearGradient6134">
      <stop
         style="stop-color:#008000;stop-opacity:1"
         offset="0"
         id="stop6136" />
      <stop
         style="stop-color:#81ff81;stop-opacity:1"
         offset="1"
         id="stop6138" />
    </linearGradient>
    <linearGradient
       id="linearGradient5152">
      <stop
         style="stop-color:#000080;stop-opacity:1"
         offset="0"
         id="stop5154" />
      <stop
         style="stop-color:#8181ff;stop-opacity:1"
         offset="1"
         id="stop5156" />
    </linearGradient>
    <linearGradient
       x1="0"
       y1="275"
       x2="350"
       y2="275"
       id="linearGradient5158"
       xlink:href="#linearGradient5152"
       gradientUnits="userSpaceOnUse"
       gradientTransform="matrix(0,1,-1,0,550,50)" />
    <linearGradient
       x1="0"
       y1="275"
       x2="350"
       y2="275"
       id="linearGradient5163"
       xlink:href="#linearGradient6134"
       gradientUnits="userSpaceOnUse"
       gradientTransform="matrix(0,0.7142858,-1,0,600,100)" />
    <linearGradient
       x1="0"
       y1="275"
       x2="350"
       y2="275"
       id="linearGradient6143"
       xlink:href="#linearGradient7114"
       gradientUnits="userSpaceOnUse"
       gradientTransform="matrix(0,0.4285714,-1,0,650,150)" />
    <linearGradient
       x1="0"
       y1="275"
       x2="350"
       y2="275"
       id="linearGradient7123"
       xlink:href="#linearGradient8094"
       gradientUnits="userSpaceOnUse"
       gradientTransform="matrix(0,0.1428571,-1,0,700,200)" />
    <linearGradient
       x1="0"
       y1="275"
       x2="350"
       y2="275"
       id="linearGradient8104"
       xlink:href="#linearGradient8094"
       gradientUnits="userSpaceOnUse"
       gradientTransform="matrix(0,-0.1428571,1,0,200,250)" />
    <linearGradient
       x1="0"
       y1="275"
       x2="350"
       y2="275"
       id="linearGradient8109"
       xlink:href="#linearGradient7114"
       gradientUnits="userSpaceOnUse"
       gradientTransform="matrix(0,-0.4285714,1,0,150,300)" />
    <linearGradient
       x1="0"
       y1="275"
       x2="350"
       y2="275"
       id="linearGradient8132"
       xlink:href="#linearGradient6134"
       gradientUnits="userSpaceOnUse"
       gradientTransform="matrix(0,-0.7142858,1,0,100,350)" />
    <linearGradient
       x1="0"
       y1="275"
       x2="350"
       y2="275"
       id="linearGradient8137"
       xlink:href="#linearGradient5152"
       gradientUnits="userSpaceOnUse"
       gradientTransform="matrix(0,-1,1,0,50,400)" />
  </defs>
  <g
     style="opacity:1"
     id="layer1"
     transform="translate(-48,-50)">
    <path
       d="m 500,50 -400,0 c -27.6,0 -50,78.4 -50,175 0,96.6 22.4,175 50,175 l 400,0 c -27.6,0 -50,-78.4 -50,-175 0,-96.6 22.4,-175 50,-175 z"
       style="opacity:1;fill:url(#linearGradient5158);fill-opacity:1;stroke:none"
       id="path3195"
       inkscape:connector-curvature="0" />
  </g>
  <g
     style="opacity:1"
     id="layer2"
     transform="translate(-48,-50)">
    <path
       d="m 550,100 -400,0 c -27.6,0 -50,56 -50,125 0,69 22.4,125 50,125 l 400,0 c -27.6,0 -50,-56 -50,-125 0,-69 22.4,-125 50,-125 z"
       style="opacity:1;fill:url(#linearGradient5163);fill-opacity:1;stroke:none"
       id="path5161"
       inkscape:connector-curvature="0" />
  </g>
  <g
     style="display:inline;opacity:1"
     id="layer3"
     transform="translate(-48,-50)">
    <path
       d="m 600,150 -400,0 c -27.6,0 -50,33.6 -50,75 0,41.4 22.4,75 50,75 l 400,0 c -27.6,0 -50,-33.6 -50,-75 0,-41.4 22.4,-75 50,-75 z"
       style="opacity:1;fill:url(#linearGradient6143);fill-opacity:1;stroke:none"
       id="path6141"
       inkscape:connector-curvature="0" />
  </g>
  <g
     style="display:inline;opacity:1"
     id="layer4"
     transform="translate(-48,-50)">
    <path
       d="m 650,200 -400,0 c -27.6,0 -50,11.2 -50,25 0,13.8 22.4,25 50,25 l 400,0 c -27.6,0 -50,-11.2 -50,-25 0,-13.8 22.4,-25 50,-25 z"
       style="opacity:1;fill:url(#linearGradient7123);fill-opacity:1;stroke:none"
       id="path7121"
       inkscape:connector-curvature="0" />
  </g>
  <g
     style="opacity:0.66699997"
     id="layer5"
     transform="translate(-48,-50)">
    <path
       d="m 250,250 400,0 c 27.6,0 50,-11.2 50,-25 0,-13.8 -22.4,-25 -50,-25 l -400,0 c 27.6,0 50,11.2 50,25 0,13.8 -22.4,25 -50,25 z"
       style="opacity:1;fill:url(#linearGradient8104);fill-opacity:1;stroke:none"
       id="path8102"
       inkscape:connector-curvature="0" />
  </g>
  <g
     style="display:inline;opacity:0.66699997"
     id="layer6"
     transform="translate(-48,-50)">
    <path
       d="m 200,300 400,0 c 27.6,0 50,-33.6 50,-75 0,-41.4 -22.4,-75 -50,-75 l -400,0 c 27.6,0 50,33.6 50,75 0,41.4 -22.4,75 -50,75 z"
       style="opacity:1;fill:url(#linearGradient8109);fill-opacity:1;stroke:none"
       id="path8107"
       inkscape:connector-curvature="0" />
  </g>
  <g
     style="display:inline;opacity:0.66699997"
     id="layer7"
     transform="translate(-48,-50)">
    <path
       d="m 150,350 400,0 c 27.6,0 50,-56 50,-125 0,-69 -22.4,-125 -50,-125 l -400,0 c 27.6,0 50,56 50,125 0,69 -22.4,125 -50,125 z"
       style="opacity:1;fill:url(#linearGradient8132);fill-opacity:1;stroke:none"
       id="path8130"
       inkscape:connector-curvature="0" />
  </g>
  <g
     style="display:inline;opacity:0.66699997"
     id="layer8"
     transform="translate(-47.381109,-51.034646)">
    <path
       d="m 100,400 400,0 c 27.6,0 50,-78.4 50,-175 0,-96.6 -22.4,-175 -50,-175 l -400,0 c 27.6,0 50,78.4 50,175 0,96.6 -22.4,175 -50,175 z"
       style="opacity:1;fill:url(#linearGradient8137);fill-opacity:1;stroke:none"
       id="path8135"
       inkscape:connector-curvature="0" />
  </g>
  <g
     id="layer12"
     transform="translate(-48,-50)">
    <text
       x="708.51239"
       y="225.12932"
       style="font-style:normal;font-weight:normal;font-size:12px;font-family:'Bitstream Vera Sans';display:inline;opacity:1;fill:#000000;fill-opacity:1;stroke:none;stroke-width:1px;stroke-linecap:butt;stroke-linejoin:miter;stroke-opacity:1"
       id="text9130"
       xml:space="preserve"><tspan
         x="708.51239"
         y="225.12932"
         style="font-size:24px"
         id="tspan9132">Message</tspan></text>
    <text
       x="633.98853"
       y="170.00793"
       style="font-style:normal;font-weight:normal;font-size:12px;font-family:'Bitstream Vera Sans';display:inline;opacity:1;fill:#800000;fill-opacity:1;stroke:none;stroke-width:1px;stroke-linecap:butt;stroke-linejoin:miter;stroke-opacity:1"
       id="text9126"
       xml:space="preserve"><tspan
         x="633.98853"
         y="170.00793"
         style="font-size:24px;fill:#800000"
         id="tspan9128">Ciphered layer with C's public key</tspan></text>
    <text
       x="577.13354"
       y="120.00825"
       style="font-style:normal;font-weight:normal;font-size:12px;font-family:'Bitstream Vera Sans';opacity:1;fill:#008000;fill-opacity:1;stroke:none;stroke-width:1px;stroke-linecap:butt;stroke-linejoin:miter;stroke-opacity:1"
       id="text9122"
       xml:space="preserve"><tspan
         x="577.13354"
         y="120.00825"
         style="font-size:24px;fill:#008000"
         id="tspan9124">Ciphered layer with B's public key</tspan></text>
    <text
       x="522.64453"
       y="70.007812"
       style="font-style:normal;font-weight:normal;font-size:12px;font-family:'Bitstream Vera Sans';opacity:1;fill:#000080;fill-opacity:1;stroke:none;stroke-width:1px;stroke-linecap:butt;stroke-linejoin:miter;stroke-opacity:1"
       id="text9118"
       xml:space="preserve"><tspan
         x="522.64453"
         y="70.007812"
         style="font-size:24px;fill:#000080"
         id="tspan9120">Ciphered layer with A's public key</tspan></text>
    <text
       x="49.417969"
       y="499.66016"
       style="font-style:normal;font-weight:normal;font-size:12px;font-family:'Bitstream Vera Sans';fill:#000000;fill-opacity:1;stroke:none;stroke-width:1px;stroke-linecap:butt;stroke-linejoin:miter;stroke-opacity:1"
       id="text9183"
       xml:space="preserve"><tspan
         x="49.417969"
         y="499.66016"
         style="font-size:24px"
         id="tspan9185">Source</tspan></text>
    <text
       x="544.06604"
       y="425.39175"
       style="font-style:normal;font-weight:normal;font-size:12px;font-family:'Bitstream Vera Sans';text-align:end;text-anchor:end;fill:#000080;fill-opacity:1;stroke:none;stroke-width:1px;stroke-linecap:butt;stroke-linejoin:miter;stroke-opacity:1"
       id="text10166"
       xml:space="preserve"><tspan
         x="544.06604"
         y="425.39175"
         style="font-size:24px;text-align:end;text-anchor:end;fill:#000080"
         id="tspan10168">DTN Node A</tspan></text>
    <text
       x="595.56592"
       y="449.66016"
       style="font-style:normal;font-weight:normal;font-size:12px;font-family:'Bitstream Vera Sans';text-align:end;text-anchor:end;fill:#008000;fill-opacity:1;stroke:none;stroke-width:1px;stroke-linecap:butt;stroke-linejoin:miter;stroke-opacity:1"
       id="text10180"
       xml:space="preserve"><tspan
         x="595.56592"
         y="449.66016"
         style="font-size:24px;text-align:end;text-anchor:end;fill:#008000"
         id="tspan10182">DTN Node B</tspan></text>
    <text
       x="644.47144"
       y="474.66016"
       style="font-style:normal;font-weight:normal;font-size:12px;font-family:'Bitstream Vera Sans';text-align:end;text-anchor:end;fill:#800000;fill-opacity:1;stroke:none;stroke-width:1px;stroke-linecap:butt;stroke-linejoin:miter;stroke-opacity:1"
       id="text10184"
       xml:space="preserve"><tspan
         x="644.47144"
         y="474.66016"
         style="font-size:24px;text-align:end;text-anchor:end;fill:#800000"
         id="tspan10186">DTN Node C</tspan></text>
    <text
       x="701.06213"
       y="499.66016"
       style="font-style:normal;font-weight:normal;font-size:12px;font-family:'Bitstream Vera Sans';text-align:end;text-anchor:end;fill:#000000;fill-opacity:1;stroke:none;stroke-width:1px;stroke-linecap:butt;stroke-linejoin:miter;stroke-opacity:1"
       id="text10192"
       xml:space="preserve"><tspan
         x="701.06213"
         y="499.66016"
         style="font-size:24px;text-align:end;text-anchor:end"
         id="tspan10194">Destination</tspan></text>
    <g
       id="g2219">
      <path
         d="m 51.375,511.5625 0,2.75 645,0 0,-2.75 -645,0 z"
         style="fill:#000000;fill-opacity:1;fill-rule:evenodd;stroke:none;stroke-width:2.73842454;stroke-linecap:butt;stroke-linejoin:miter;stroke-miterlimit:4;stroke-dasharray:none;stroke-opacity:1"
         id="path10200"
         inkscape:connector-curvature="0" />
      <path
         d="M 667.08836,500.7951 700.00002,512.89755 667.08836,525 c 5.2579,-7.14528 5.22761,-16.92126 0,-24.2049 z"
         style="font-size:12px;fill-rule:evenodd;stroke-width:0.625;stroke-linejoin:round"
         id="path2225"
         inkscape:connector-curvature="0" />
    </g>
    <path
       d="m 48,226 0,273 2,0 0,-273 -2,0 z"
       style="fill:#000000;fill-opacity:1;fill-rule:evenodd;stroke:none;stroke-width:2;stroke-linecap:butt;stroke-linejoin:miter;stroke-miterlimit:4;stroke-dasharray:none;stroke-opacity:1"
       id="path11369"
       inkscape:connector-curvature="0" />
    <path
       d="m 700,226 0,273 2,0 0,-273 -2,0 z"
       style="fill:#000000;fill-opacity:1;fill-rule:evenodd;stroke:none;stroke-width:2;stroke-linecap:butt;stroke-linejoin:miter;stroke-miterlimit:4;stroke-dasharray:none;stroke-opacity:1"
       id="path13310"
       inkscape:connector-curvature="0" />
    <path
       d="m 650,226 0,248 2,0 0,-248 -2,0 z"
       style="fill:#000000;fill-opacity:1;fill-rule:evenodd;stroke:none;stroke-width:1.99999988;stroke-linecap:butt;stroke-linejoin:miter;stroke-miterlimit:4;stroke-dasharray:none;stroke-opacity:1"
       id="path13312"
       inkscape:connector-curvature="0" />
    <path
       d="m 600,226 0,223 2,0 0,-223 -2,0 z"
       style="fill:#000000;fill-opacity:1;fill-rule:evenodd;stroke:none;stroke-width:2;stroke-linecap:butt;stroke-linejoin:miter;stroke-miterlimit:4;stroke-dasharray:none;stroke-opacity:1"
       id="path13314"
       inkscape:connector-curvature="0" />
    <path
       d="m 550,226 0,198 2,0 0,-198 -2,0 z"
       style="fill:#000000;fill-opacity:1;fill-rule:evenodd;stroke:none;stroke-width:2;stroke-linecap:butt;stroke-linejoin:miter;stroke-miterlimit:4;stroke-dasharray:none;stroke-opacity:1"
       id="path13316"
       inkscape:connector-curvature="0" />
    <text
       xml:space="preserve"
       id="text3399"
       style="font-style:normal;font-weight:normal;font-size:12px;font-family:'Bitstream Vera Sans';opacity:1;fill:#008000;fill-opacity:1;stroke:none;stroke-width:1px;stroke-linecap:butt;stroke-linejoin:miter;stroke-opacity:1"
       y="120.00825"
       x="577.13354"><tspan
         id="tspan3401"
         style="font-size:24px;fill:#008000"
         y="120.00825"
         x="577.13354" /></text>
  </g>
</svg>
